<?xml version="1.0" standalone="no"?>
<!DOCTYPE svg PUBLIC "-//W3C//DTD SVG 1.1//EN" "http://www.w3.org/Graphics/SVG/1.1/DTD/svg11.dtd" >
<svg xmlns="http://www.w3.org/2000/svg" xmlns:xlink="http://www.w3.org/1999/xlink" version="1.1">
<metadata></metadata>
<defs>
<font id="death_star_outlinesregular" horiz-adv-x="50" >
<font-face units-per-em="2048" ascent="1638" descent="-410" />
<missing-glyph horiz-adv-x="366" />
<glyph unicode="AJ" horiz-adv-x="2339" d="M954 555l-112 297l-112 -297h224zM1573 34q109 13 158 25q191 47 320 171q86 82 137 195q67 149 67 337v687h-368v-687q0 -221 -176 -313q-56 -28 -119 -40q-20 -4 -40 -6h-79l-400 1046h-462l-561 -1415h446l54 143h583l55 -143h385zM680 521l162 427l162 -427h-324z M1164 0l-55 143h-535l-54 -143h-520l587 1483h510l400 -1046h53q16 2 36 6q59 10 109 36q158 82 158 283v721h436v-721q0 -196 -71 -351q-53 -119 -143 -205q-137 -130 -336 -181q-51 -12 -164 -25h-411z" />
<glyph unicode="CS" horiz-adv-x="2422" d="M2011 34q134 0 231 103q96 103 96 242q0 98 -59 185q-464 483 -492 517h531v368h-610q-135 0 -231 -103q-95 -102 -95 -242q0 -113 60 -186l494 -515h-1194q-141 0 -240 99q-100 99 -100 240t98 240q99 99 242 99h546v368h-546q-294 0 -501 -207t-207 -500 q0 -294 207 -501t501 -207h1269zM742 0q-308 0 -525 217t-217 525q0 307 217 524t525 217h580v-436h-580q-129 0 -218 -89q-88 -89 -88 -216t90 -216q89 -89 216 -89h1114l-440 459q-68 83 -68 208q0 154 105 266q106 113 255 113h644v-436h-493q-18 22 446 -461 q67 -99 67 -207q0 -153 -106 -266q-107 -113 -255 -113h-1269z" />
<glyph unicode="CT" horiz-adv-x="2259" d="M1434 1081v-1047h369v1047h372v368h-1433q-294 0 -501 -207t-207 -500q0 -294 207 -501t501 -207h546v369h-546q-141 0 -240 99q-100 99 -100 240t98 240q99 99 242 99h692zM742 1047q-129 0 -218 -89q-88 -89 -88 -216t90 -216q89 -89 216 -89h580v-437h-580 q-308 0 -525 217t-217 525q0 307 217 524t525 217h1467v-436h-372v-1047h-437v1047h-658z" />
<glyph unicode="CZ" horiz-adv-x="2625" d="M2069 1081l-645 -678v-369h1117v369h-646l646 677v369h-1799q-294 0 -501 -207t-207 -500q0 -294 207 -501t501 -207h546v369h-546q-141 0 -240 99q-100 99 -100 240t98 240q99 99 242 99h1327zM742 1047q-129 0 -218 -89q-88 -89 -88 -216t90 -216q89 -89 216 -89h580 v-437h-580q-308 0 -525 217t-217 525q0 307 217 524t525 217h1833v-417l-600 -629h600v-437h-1185v417l599 630h-1247z" />
<glyph unicode="EJ" horiz-adv-x="2068" d="M1282 34l47 3q63 6 131 22q191 47 320 171q86 82 137 195q67 149 67 337v687h-368v-687q0 -221 -176 -313q-56 -28 -119 -40q-20 -4 -40 -6h-878v154h647v369h-647v155h647v368h-1016v-1415h1248zM0 0v1483h1084v-436h-647v-87h647v-437h-647v-86h842q16 2 36 6 q59 10 109 36q158 82 158 283v721h436v-721q0 -196 -71 -351q-53 -119 -143 -205q-137 -130 -336 -181q-70 -16 -137 -22l-47 -3h-1284z" />
<glyph unicode="ES" horiz-adv-x="2207" d="M1796 34q134 0 231 103q96 103 96 242q0 98 -60 187q-22 33 -243 258t-253 257h536v368h-610q-135 0 -231 -103q-95 -102 -95 -242q0 -97 61 -188q23 -35 494 -513h-1319v154h647v369h-647v155h647v368h-1016v-1415h1762zM0 0v1483h1084v-436h-647v-87h647v-437h-647v-86 h1203q-415 422 -440 461q-67 99 -67 206q0 154 105 266q106 113 255 113h644v-436h-488q-26 26 196 -200t246 -263q66 -97 66 -205q0 -153 -106 -266q-107 -113 -255 -113h-1796z" />
<glyph unicode="ET" horiz-adv-x="2151" d="M1326 1081v-1047h369v1047h372v368h-2033v-1415h1016v369h-647v154h647v369h-647v155h923zM437 1047v-87h647v-437h-647v-86h647v-437h-1084v1483h2101v-436h-372v-1047h-437v1047h-855z" />
<glyph unicode="ETT" horiz-adv-x="2951" d="M2126 1081v-1047h369v1047h372v368h-2833v-1415h1016v369h-647v154h647v369h-647v155h923v-1047h369v1047h431zM1729 1047v-1047h-437v1047h-855v-87h647v-437h-647v-86h647v-437h-1084v1483h2901v-436h-372v-1047h-437v1047h-363z" />
<glyph unicode="FF" horiz-adv-x="2232" d="M1132 34h369v523h546v369h-546v155h647v368h-2114v-1415h369v523h546v369h-546v155h729v-1047zM1098 1047h-661v-87h546v-437h-546v-523h-437v1483h2182v-436h-647v-87h546v-437h-546v-523h-437v1047z" />
<glyph unicode="FH" horiz-adv-x="2421" d="M1135 34h369v523h465v-523h368v1415h-368v-523h-465v523h-1470v-1415h369v523h546v369h-546v155h732v-1047zM1101 1047h-664v-87h546v-437h-546v-523h-437v1483h1538v-523h397v523h436v-1483h-436v523h-397v-523h-437v1047z" />
<glyph unicode="FI" horiz-adv-x="1588" d="M1135 34h369v1415h-1470v-1415h369v523h546v369h-546v155h732v-1047zM1101 1047h-664v-87h546v-437h-546v-523h-437v1483h1538v-1483h-437v1047z" />
<glyph unicode="FL" horiz-adv-x="2285" d="M1135 34h1066v369h-695v1046h-1472v-1415h371v523h546v369h-546v155h730v-1047zM1101 1047h-662v-87h546v-437h-546v-523h-439v1483h1540v-1046h695v-437h-1134v1047z" />
<glyph unicode="FFI" horiz-adv-x="2688" d="M1503 34v523h546v369h-546v155h732v-1047h369v1415h-2570v-1415h369v523h546v369h-546v155h729v-1047h371zM1098 0v1047h-661v-87h546v-437h-546v-523h-437v1483h2638v-1483h-437v1047h-664v-87h546v-437h-546v-523h-439z" />
<glyph unicode="FFL" horiz-adv-x="3383" d="M2233 34h1066v369h-695v1046h-2570v-1415h369v523h546v369h-546v155h729v-1047h371v523h546v369h-546v155h730v-1047zM2199 1047h-662v-87h546v-437h-546v-523h-439v1047h-661v-87h546v-437h-546v-523h-437v1483h2638v-1046h695v-437h-1134v1047z" />
<glyph unicode="FT" horiz-adv-x="2151" d="M34 1449v-1415h369v523h546v369h-546v155h923v-1047h369v1047h372v368h-2033zM2101 1483v-436h-372v-1047h-437v1047h-855v-87h546v-437h-546v-523h-437v1483h2101z" />
<glyph unicode="HT" horiz-adv-x="2153" d="M867 1449v-523h-465v523h-368v-1415h368v523h465v-523h369v1047h92v-1047h369v1047h372v368h-1202zM2103 1483v-436h-372v-1047h-437v1047h-24v-1047h-437v523h-397v-523h-436v1483h436v-523h397v523h1270z" />
<glyph unicode="GT" horiz-adv-x="2259" d="M742 1449q-294 0 -501 -207t-207 -500q0 -294 207 -501t501 -207h553v677h-369v-308h-184q-141 0 -240 99q-100 98 -100 240q0 141 98 240q99 99 242 99h692v-1047h369v1047h372v368h-1433zM2209 1483v-436h-372v-1047h-437v1047h-658q-129 0 -218 -89q-88 -89 -88 -216 q0 -128 90 -216q89 -89 216 -89h150v308h437v-745h-587q-308 0 -525 217t-217 525q0 307 217 524t525 217h1467z" />
<glyph unicode="GZ" horiz-adv-x="2625" d="M742 1449q-294 0 -501 -207t-207 -500q0 -294 207 -501t501 -207h553v677h-369v-308h-184q-141 0 -240 99q-100 98 -100 240q0 141 98 240q99 99 242 99h1327l-645 -678v-369h1117v369h-646l646 677v369h-1799zM2575 1483v-417l-600 -629h600v-437h-1185v417l599 630 h-1247q-129 0 -218 -89q-88 -89 -88 -216q0 -128 90 -216q89 -89 216 -89h150v308h437v-745h-587q-308 0 -525 217t-217 525q0 307 217 524t525 217h1833z" />
<glyph unicode="KA" horiz-adv-x="2749" d="M1989 555l-112 297l-112 -297h224zM1129 403q-219 0 -326 110q-50 52 -81 137l602 799h-478l-443 -601v601h-369v-1415h369v417q57 -101 89 -141q20 -26 41 -49q197 -206 555 -226v-1h443l54 143h583l55 -143h426l-541 1415h-462l-414 -1046h-103zM1715 521l162 427 l162 -427h-324zM1208 437l414 1046h510l567 -1483h-500l-55 143h-535l-54 -143h-523l2 3q-320 18 -525 234q-23 25 -43 51q-34 42 -29 33v-321h-437v1483h437v-531l391 531h564l-632 -839q23 -61 67 -107q97 -100 302 -100h79z" />
<glyph unicode="LA" horiz-adv-x="2333" d="M1573 555l-112 297l-112 -297h224zM403 403v1046h-369v-1415h1081l54 143h583l55 -143h426l-541 1415h-462l-414 -1046h-413zM1299 521l162 427l162 -427h-324zM792 437l414 1046h510l567 -1483h-500l-55 143h-535l-54 -143h-1139v1483h437v-1046h355z" />
<glyph unicode="LS" horiz-adv-x="1885" d="M1474 34q134 0 231 103q96 103 96 242q0 98 -59 185q-464 483 -492 517h531v368h-610q-135 0 -231 -103q-95 -102 -95 -242q0 -113 60 -186l494 -515h-996v1046h-369v-1415h1440zM0 0v1483h437v-1046h882l-440 459q-68 83 -68 208q0 154 105 266q106 113 255 113h644 v-436h-493q-18 22 446 -461q67 -99 67 -207q0 -153 -106 -266q-107 -113 -255 -113h-1474z" />
<glyph unicode="LT" horiz-adv-x="1938" d="M1482 34v1047h372v368h-1113v-368h372v-678h-710v1046h-369v-1415h1448zM0 0v1483h437v-1046h642v610h-372v436h1181v-436h-372v-1047h-1516z" />
<glyph unicode="RA" horiz-adv-x="2749" d="M1989 555l-112 297l-112 -297h224zM1531 34l54 143h583l55 -143h426l-541 1415h-462l-414 -1046h-382q197 109 282 236q86 131 86 288q0 215 -151 367q-151 153 -366 155h-667v-1415h369v285l263 -285h865zM665 824q34 0 58 24t24 58t-24 58t-58 24h-228v-164h228z M1715 521l162 427l162 -427h-324zM652 0l-215 233v-233h-437v1483h701q229 -2 390 -165q161 -162 161 -391q0 -167 -92 -306q-89 -135 -178 -184h226l414 1046h510l567 -1483h-500l-55 143h-535l-54 -143h-903zM403 790v232h262q48 0 82 -34t34 -82t-34 -82t-82 -34h-262z " />
<glyph unicode="RI" horiz-adv-x="1757" d="M665 824q34 0 58 24t24 58t-24 58t-58 24h-228v-164h228zM1673 34v1415h-369v-1046h-454q197 109 282 236q86 131 86 288q0 215 -151 367q-151 153 -366 155h-667v-1415h369v285l263 -285h1007zM403 790v232h262q48 0 82 -34t34 -82t-34 -82t-82 -34h-262zM652 0 l-215 233v-233h-437v1483h701q229 -2 390 -165q161 -162 161 -391q0 -167 -92 -306q-89 -135 -178 -184h288v1046h437v-1483h-1055z" />
<glyph unicode="RM" horiz-adv-x="2937" d="M665 824q34 0 58 24t24 58t-24 58t-58 24h-228v-164h228zM1671 34v679l406 -658l407 658v-679h369v1415h-475l-300 -677l-350 677h-426v-1046h-452q197 109 282 236q86 131 86 288q0 215 -151 367q-151 153 -366 155h-667v-1415h369v285l263 -285h1005zM403 790v232h262 q48 0 82 -34t34 -82t-34 -82t-82 -34h-262zM652 0l-215 233v-233h-437v1483h701q229 -2 390 -165q161 -162 161 -391q0 -167 -92 -306q-89 -135 -178 -184h286v1046h480l328 -633l280 633h531v-1483h-437v593l-373 -602l-372 602v-593h-1053z" />
<glyph unicode="RN" horiz-adv-x="2694" d="M665 824q34 0 58 24t24 58t-24 58t-58 24h-228v-164h228zM1672 34v790l561 -790h377v1415h-369v-789l-563 789h-375v-1046h-453q197 109 282 236q86 131 86 288q0 215 -151 367q-151 153 -366 155h-667v-1415h369v285l263 -285h1006zM403 790v232h262q48 0 82 -34t34 -82 t-34 -82t-82 -34h-262zM652 0l-215 233v-233h-437v1483h701q229 -2 390 -165q161 -162 161 -391q0 -167 -92 -306q-89 -135 -178 -184h287v1046h427l511 -717v717h437v-1483h-429l-509 718v-718h-1054z" />
<glyph unicode="RS" horiz-adv-x="2352" d="M1941 34q134 0 231 103q96 103 96 242q0 98 -59 185q-464 483 -492 517h531v368h-610q-135 0 -231 -103q-95 -102 -95 -242q0 -113 60 -186l494 -515h-782h-234q197 109 282 236q86 131 86 288q0 215 -151 367q-151 153 -366 155h-667v-1415h369v285l263 -285h418h857z M665 824q34 0 58 24t24 58t-24 58t-58 24h-228v-164h228zM1084 0h-432l-215 233v-233h-437v1483h701q229 -2 390 -165q161 -162 161 -391q0 -167 -92 -306q-89 -135 -178 -184h102h702l-440 459q-68 83 -68 208q0 154 105 266q106 113 255 113h644v-436h-493 q-18 22 446 -461q67 -99 67 -207q0 -153 -106 -266q-107 -113 -255 -113h-857zM403 790v232h262q48 0 82 -34t34 -82t-34 -82t-82 -34h-262z" />
<glyph unicode="SI" horiz-adv-x="1678" d="M368 1449q-135 0 -231 -103q-95 -102 -95 -242q0 -113 60 -186l494 -515h-562v-369h637q134 0 231 103q96 103 96 242q0 98 -59 185q-464 483 -492 517h778v-1047h369v1415h-1226zM1628 1483v-1483h-437v1047h-672q-18 22 446 -461q67 -99 67 -207q0 -153 -106 -266 q-107 -113 -255 -113h-671v437h516l-440 459q-68 83 -68 208q0 154 105 266q106 113 255 113h1260z" />
<glyph unicode="SL" horiz-adv-x="2374" d="M1224 34h1066v369h-696v1046h-1226q-135 0 -231 -103q-95 -102 -95 -242q0 -113 60 -186l494 -515h-562v-369h637q134 0 231 103q96 103 96 242q0 98 -59 185q-464 483 -492 517h777v-1047zM1190 1047h-671q-18 22 446 -461q67 -99 67 -207q0 -153 -106 -266 q-107 -113 -255 -113h-671v437h516l-440 459q-68 83 -68 208q0 154 105 266q106 113 255 113h1260v-1046h696v-437h-1134v1047z" />
<glyph unicode="ST" horiz-adv-x="2050" d="M368 1449q-135 0 -231 -103q-95 -102 -95 -242q0 -113 60 -186l494 -515h-562v-369h637q134 0 231 103q96 103 96 242q0 98 -59 185q-464 483 -492 517h778v-1047h369v1047h372v368h-1598zM2000 1483v-436h-372v-1047h-437v1047h-672q-18 22 446 -461q67 -99 67 -207 q0 -153 -106 -266q-107 -113 -255 -113h-671v437h516l-440 459q-68 83 -68 208q0 154 105 266q106 113 255 113h1632z" />
<glyph unicode="SLA" horiz-adv-x="3528" d="M2768 555l-112 297l-112 -297h224zM2494 521l162 427l162 -427h-324zM2310 34l54 143h583l55 -143h426l-541 1415h-462l-414 -1046h-413v1046h-1230q-135 0 -231 -103q-95 -102 -95 -242q0 -113 60 -186l494 -515h-562v-369h637q134 0 231 103q96 103 96 242 q0 98 -59 185q-464 483 -492 517h777v-1047h1086zM520 1047q21 -20 445 -461q67 -99 67 -207q0 -153 -106 -266q-107 -113 -255 -113h-671v437h516l-440 459q-68 83 -68 208q0 154 105 266q106 113 255 113h1264v-1046h355l414 1046h510l567 -1483h-500l-55 143h-535 l-54 -143h-1144v1047h-670z" />
<glyph unicode="TT" horiz-adv-x="2031" d="M34 1449v-368h372v-1047h369v1047h431v-1047h369v1047h372v368h-1913zM1981 1483v-436h-372v-1047h-437v1047h-363v-1047h-437v1047h-372v436h1981z" />
<glyph unicode="TH" horiz-adv-x="2199" d="M34 1449v-368h372v-1047h369v1047h138v-1047h369v523h465v-523h368v1415h-368v-523h-465v523h-1248zM1316 1483v-523h397v523h436v-1483h-436v523h-397v-523h-437v1047h-70v-1047h-437v1047h-372v436h1316z" />
<glyph unicode="TI" horiz-adv-x="1679" d="M34 1449v-368h372v-1047h369v1047h451v-1047h369v1415h-1561zM1629 1483v-1483h-437v1047h-383v-1047h-437v1047h-372v436h1629z" />
<glyph unicode="TZ" horiz-adv-x="2242" d="M1686 1081l-645 -678v-369h1117v369h-646l646 677v369h-2124v-368h372v-1047h369v1047h911zM809 1047v-1047h-437v1047h-372v436h2192v-417l-600 -629h600v-437h-1185v417l599 630h-797z" />
<glyph unicode="&#xd;" horiz-adv-x="508" />
<glyph horiz-adv-x="0" />
<glyph unicode=" "  horiz-adv-x="366" />
<glyph unicode="&#x09;" horiz-adv-x="366" />
<glyph unicode="&#xa0;" horiz-adv-x="366" />
<glyph unicode="!" horiz-adv-x="487" d="M34 473h369v976h-369v-976zM34 34h369v327h-369v-327zM0 1483h437v-1044h-437v1044zM0 395h437v-395h-437v395z" />
<glyph unicode="&#x22;" horiz-adv-x="945" d="M492 954h369v496h-369v-496zM34 954h369v496h-369v-496zM458 1484h437v-564h-437v564zM0 1484h437v-564h-437v564z" />
<glyph unicode="#" horiz-adv-x="829" d="M34 1052v-165h49l-23 -128h198l22 128h117l-23 -128h198l22 128h106v165h-76l20 110h101v165h-71l22 122h-198l-22 -122h-116l22 122h-198l-22 -122h-83v-165h53l-19 -110h-79zM358 1128l-8 -42h49l7 42h-48zM85 1086l7 42h-47v233h89l22 122h266l-22 -122h48l22 122h266 l-22 -122h65v-233h-107l-8 -42h70v-233h-112l-22 -128h-266l23 128h-49l-22 -128h-266l23 128h-43v233h85zM446 1162l-19 -110h-117l20 110h116z" />
<glyph unicode="$" horiz-adv-x="583" d="M193 1384q-64 0 -110 -49q-45 -49 -45 -115q0 -46 28 -88l261 -271h-293v-168h177v-69h112v69h21q64 0 110 49q45 49 45 115q0 47 -28 89q-11 16 -208 217l-54 54h280v167h-166v64h-112v-64h-18zM177 1418v65h180v-65h166v-235h-232q195 -199 208 -219q34 -50 34 -107 q0 -80 -55 -139q-56 -59 -121 -59v-69h-180v69h-177v236h247l-207 215q-36 54 -36 110q0 80 55 139q56 59 118 59z" />
<glyph unicode="%" horiz-adv-x="935" d="M139 759h191l415 690h-191zM719 924q-5 0 -9 -4q1 1 -3 -3q0 -5 0 -3v32q0 2 0 -1q2 -4 3 -5q4 -4 9 -4h-34q5 0 9 4q1 1 3 5q0 3 0 1v-32v0q-5 11 -8 11q1 -1 -4 -1h34zM656 1100q-53 0 -79 -32q-24 -28 -24 -79v-119q0 -51 24 -79q26 -32 79 -32h92q53 0 79 32 q24 28 24 79v119q0 50 -24 79q-26 32 -79 32h-92zM200 1273q-5 0 -9 -4q1 1 -3 -3q0 -5 0 -3v32q0 2 0 -1q2 -4 3 -5q4 -4 9 -4h-34q5 0 9 4q1 1 3 5q0 3 0 1v-32v0q-5 11 -8 11q1 -1 -4 -1h34zM137 1449q-53 0 -79 -32q-24 -28 -24 -79v-119q0 -51 24 -79q26 -32 79 -32h92 q53 0 79 32q24 28 24 79v119q0 50 -24 79q-26 32 -79 32h-92zM534 1483h271l-455 -758h-271zM685 890q-9 0 -10 1q-5 0 -12 15v8v32v7q4 8 7 11q6 6 15 6h34q9 0 15 -6q3 -3 7 -11v-7v-32v-11l-7 -7q-6 -6 -15 -6h-34zM748 1134q69 0 105 -44q32 -39 32 -101v-119 q0 -63 -32 -101q-36 -44 -105 -44h-92q-69 0 -105 44q-32 38 -32 101v119q0 63 32 101q36 44 105 44h92zM166 1239q-9 0 -10 1q-5 0 -12 15v8v32v7q4 8 7 11q6 6 15 6h34q9 0 15 -6q3 -3 7 -11v-7v-32v-11l-7 -7q-6 -6 -15 -6h-34zM229 1483q69 0 105 -44q32 -39 32 -101 v-119q0 -63 -32 -101q-36 -44 -105 -44h-92q-69 0 -105 44q-32 38 -32 101v119q0 63 32 101q36 44 105 44h92z" />
<glyph unicode="&#x26;" horiz-adv-x="1309" d="M833 435v102h-370q-16 -1 -26 -17q-11 -15 -11 -34q0 -22 12 -38q11 -13 25 -13h370zM867 1047v-137h-404q-37 1 -58 35q-13 23 -13 51q0 34 20 58q19 26 68 28v-1h215v368h-312q-142 0 -245 -132q-104 -135 -104 -321q0 -158 57 -265q-57 -117 -57 -245q0 -268 156 -372 q120 -80 370 -80h665v1013h-358zM463 401q-31 0 -51 27q-20 24 -20 58q0 31 17 54q20 30 54 31h404v-170h-404zM1259 1081v-1081h-699q-260 0 -388 86q-172 114 -172 400q0 136 53 245q-53 99 -53 265q0 198 112 341q113 146 271 146h346v-436h-283v-1q3 0 -8 -14 q-12 -14 -12 -36q0 -18 9 -33q11 -18 28 -19h370v137h426z" />
<glyph unicode="'" horiz-adv-x="487" d="M34 952h369v496h-369v-496zM0 1482h437v-564h-437v564z" />
<glyph unicode="(" horiz-adv-x="584" d="M500 403h-37q-26 0 -44 14q-13 12 -21 31q-7 21 -6 40v508q-1 19 6 40q8 18 21 30q18 15 44 15h37v368h-42q-216 0 -326 -133q-98 -118 -98 -320v-508q0 -203 98 -321q110 -133 326 -133h42v369zM534 0h-76q-232 0 -352 145q-106 128 -106 343v508q0 214 106 342 q120 145 352 145h76v-436h-71q-14 0 -22 -7q-7 -6 -11 -16q-5 -13 -4 -28v-508q-1 -15 4 -28q4 -11 11 -17q8 -6 22 -6h71v-437z" />
<glyph unicode=")" horiz-adv-x="584" d="M34 34h42q216 0 326 133q98 118 98 321v508q0 202 -98 320q-110 133 -326 133h-42v-368h37q26 0 44 -15q13 -12 21 -30q7 -21 6 -40v-508q1 -19 -6 -40q-8 -19 -21 -31q-18 -14 -44 -14h-37v-369zM0 437h71q14 0 22 6q7 6 11 17q5 13 4 28v508q1 15 -4 28q-4 10 -11 16 q-8 7 -22 7h-71v436h76q232 0 352 -145q106 -128 106 -342v-508q0 -215 -106 -343q-120 -145 -352 -145h-76v437z" />
<glyph unicode="*" horiz-adv-x="655" d="M418 991l78 78l-59 57h134v111h-135l60 60l-78 78l-59 -57v130h-110v-132l-59 59l-79 -78l60 -60h-137v-111h135l-60 -60l78 -78l62 62v-135h110v133zM393 968v-87h-178v87l-28 -28l-126 126l26 26h-87v179h89l-26 26l127 126l25 -25v84h178v-84l25 25l126 -126l-26 -26 h87v-179h-84l23 -23l-126 -126z" />
<glyph unicode="+" horiz-adv-x="985" d="M283 308h369v249h249v369h-249v249h-369v-249h-249v-369h249v-249zM249 523h-249v437h249v249h437v-249h249v-437h-249v-249h-437v249z" />
<glyph unicode="," horiz-adv-x="663" d="M50 34h386l127 327h-386zM153 395h460l-153 -395h-460z" />
<glyph unicode="-" horiz-adv-x="645" d="M34 557h527v369h-527v-369zM0 960h595v-437h-595v437z" />
<glyph unicode="." horiz-adv-x="487" d="M34 34h369v327h-369v-327zM0 395h437v-395h-437v395z" />
<glyph unicode="/" horiz-adv-x="813" d="M40 34h429l254 1415h-429zM266 1483h497l-266 -1483h-497z" />
<glyph unicode="0" horiz-adv-x="1301" d="M789 437q14 0 21 6t11 17q5 13 4 28v508q1 15 -4 28q-3 10 -11 16q-8 7 -4 7v0h-326v0q-31 0 -39 -7q-7 -6 -11 -16q-5 -13 -4 -28v-508q-1 -15 4 -28q4 -11 11 -17q8 -6 22 -6h326zM458 1449q-216 0 -326 -133q-98 -118 -98 -320v-508q0 -203 98 -321q110 -133 326 -133 h335q216 0 326 133q98 118 98 321v508q0 202 -98 320q-110 133 -326 133h-335zM463 403q-26 0 -44 14q-13 12 -21 31q-7 21 -6 40v508q-1 19 6 40q8 18 21 30q18 15 27 15v0h326v0q44 0 60 -15q14 -12 21 -30q7 -21 6 -40v-508q1 -19 -6 -40q-6 -19 -21 -31q-17 -14 -43 -14 h-326zM793 1483q232 0 352 -145q106 -128 106 -342v-508q0 -215 -106 -343q-120 -145 -352 -145h-335q-232 0 -352 145q-106 128 -106 343v508q0 214 106 342q120 145 352 145h335z" />
<glyph unicode="1" horiz-adv-x="487" d="M34 34h369v1415h-369v-1415zM0 1483h437v-1483h-437v1483z" />
<glyph unicode="2" horiz-adv-x="1082" d="M552 472l-35 -35h515v-437h-1030q-2 185 -2 379q0 108 66 205q25 38 66 82q331 335 356 360l21 21h-488v436h643q149 0 255 -113q106 -112 106 -266q0 -107 -68 -207q-26 -38 -273 -293zM660 628l132 133l37 38l37 39q39 43 63 79q62 90 62 187q0 140 -96 242 q-96 103 -231 103h-609v-368h536l-79 -79l-43 -43q-27 -26 -50 -49q-136 -137 -190 -192l-37 -38l-36 -38q-39 -42 -62 -76q-60 -89 -60 -187q0 -194 2 -345h962v369h-563l93 93z" />
<glyph unicode="3" horiz-adv-x="1091" d="M34 1449v-366h544q30 0 51 -27q19 -24 19 -58q0 -31 -16 -55q-21 -30 -37 -30h-561v-340h561q19 0 40 -35q13 -22 13 -50q0 -34 -19 -58q-21 -27 -51 -27h-544v-369h623q142 0 245 132q105 135 105 322q0 157 -57 264q57 117 57 246q0 267 -157 372q-120 79 -369 79h-447 zM481 1483q259 0 387 -85q173 -115 173 -400q0 -137 -53 -246q53 -99 53 -264q0 -199 -113 -342q-113 -146 -271 -146h-657v437h578q14 0 25 13q11 16 11 38q0 18 -9 32q-11 19 -44 19h-561v408h561q32 0 43 16q10 14 10 35q0 22 -11 38q-11 13 -25 13h-578v434h481z" />
<glyph unicode="4" horiz-adv-x="1126" d="M673 916h-270v533h-369v-902h639v-513h369v1415h-369v-533zM639 1483h437v-1483h-437v513h-639v970h437v-533h202v533z" />
<glyph unicode="5" horiz-adv-x="1090" d="M403 913v168h559v368h-928v-876h561q19 0 40 -35q13 -22 13 -50q0 -34 -20 -58q-19 -27 -50 -27h-544v-369h548q216 0 326 133q98 118 98 321q0 151 -68 250q-54 81 -150 126q-111 52 -221 49h-164zM567 947q118 3 235 -53q104 -49 164 -136q74 -109 74 -270 q0 -215 -106 -343q-120 -145 -352 -145h-582v437h578q14 0 24 13q12 16 12 38q0 18 -9 32q-11 19 -44 19h-561v944h996v-436h-559v-100h130z" />
<glyph unicode="6" horiz-adv-x="1275" d="M762 437q14 0 25 14q12 15 12 37q0 18 -9 32q-8 14 -19 17h-345v-49q-1 -15 4 -28q8 -23 33 -23h299zM463 403q-49 0 -65 45q-7 21 -6 40v83h383q29 -7 45 -33q13 -22 13 -50q0 -34 -20 -59q-21 -26 -51 -26h-299zM759 913h-367v83q-1 19 6 40q8 18 21 30q18 15 61 15 h604v368h-626q-216 0 -326 -133q-98 -118 -98 -320v-508q0 -203 98 -321q110 -133 326 -133h309q216 0 326 133q98 118 98 321q0 146 -64 245q-65 99 -190 145q-46 18 -96 26q-20 4 -38 6l-32 2q-6 1 -12 1zM775 946q14 -1 30 -2q22 -2 42 -6q54 -10 102 -28 q135 -50 206 -159q70 -107 70 -263q0 -215 -106 -343q-120 -145 -352 -145h-309q-232 0 -352 145q-106 128 -106 343v508q0 214 106 342q120 145 352 145h660v-436h-672q3 0 -5 -7q-7 -6 -11 -16q-5 -13 -4 -28v-49h333q8 0 16 -1z" />
<glyph unicode="7" horiz-adv-x="1096" d="M34 1081h455l-308 -1047h387l432 1415h-966v-368zM0 1483h1046l-452 -1483h-459l308 1047h-443v436z" />
<glyph unicode="8" horiz-adv-x="1275" d="M762 437q14 0 25 14q12 15 12 37q0 18 -8 32q-10 14 -20 17h-317q-11 -3 -19 -17q-9 -14 -9 -32q0 -22 12 -38q11 -13 25 -13h299zM480 1048q-31 -2 -42 -16q-12 -14 -12 -36q0 -18 9 -33q8 -14 18 -17q6 1 13 1h292q8 0 14 -1q9 3 19 17q8 15 8 33q0 22 -12 36 q-11 14 -8 14v1h-299v1zM463 403q-31 0 -51 27q-20 24 -20 58q0 28 13 50q16 26 45 33h325q28 -7 44 -33q14 -22 14 -50q0 -34 -20 -59q-21 -26 -51 -26h-299zM446 1081h299v1q47 -2 68 -28q20 -24 20 -58q0 -28 -14 -51q-16 -26 -45 -33q-10 1 -16 1h-292q-5 0 -15 -1 q-30 7 -46 33q-13 23 -13 51q0 34 20 58q19 26 34 26v1zM458 1449q-216 0 -326 -133q-98 -118 -98 -320q0 -146 70 -254q-70 -108 -70 -254q0 -203 98 -321q110 -133 326 -133h309q216 0 326 133q98 118 98 321q0 146 -70 254q70 108 70 254q0 202 -98 320 q-110 133 -326 133h-309zM767 1483q232 0 352 -145q106 -128 106 -342q0 -156 -64 -254q64 -98 64 -254q0 -215 -106 -343q-120 -145 -352 -145h-309q-232 0 -352 145q-106 128 -106 343q0 156 64 254q-64 98 -64 254q0 214 106 342q120 145 352 145h309z" />
<glyph unicode="9" horiz-adv-x="1275" d="M462 1047q-13 -1 -24 -15q-12 -14 -12 -36q0 -18 9 -33q8 -14 17 -17q6 1 14 1h286q1 0 47 -1v50q1 15 -4 28q-8 23 -33 23h-300zM466 571h5h2h360v-83q1 -19 -6 -40q-8 -19 -21 -31q-18 -14 -27 -14v0h-638v-369h626q216 0 326 133q98 118 98 321v489v19q0 202 -98 320 q-110 133 -326 133h-309q-216 0 -326 -133q-98 -118 -98 -320q0 -147 64 -245q65 -99 190 -146q46 -18 96 -26q19 -3 39 -5q16 -2 29 -3h14zM762 1081q49 0 65 -45q7 -21 6 -40v-84q-80 1 -81 1h-286q-6 0 -16 -1q-29 7 -45 33q-13 23 -13 51q0 34 20 58q19 26 50 27h300z M450 537q-15 1 -31 3q-20 2 -41 5q-54 10 -102 28q-135 51 -206 160q-70 106 -70 263q0 214 106 342q120 145 352 145h309q232 0 352 -145q106 -128 106 -342v-19v-489q0 -215 -106 -343q-120 -145 -352 -145h-660v437h638v0q31 0 39 6q7 6 11 17q5 13 4 28v49h-326h-2h-5 h-16z" />
<glyph unicode=":" horiz-adv-x="487" d="M34 34h369v327h-369v-327zM34 1120h369v327h-369v-327zM0 395h437v-395h-437v395zM0 1481h437v-395h-437v395z" />
<glyph unicode=";" horiz-adv-x="663" d="M202 1120h369v327h-369v-327zM50 34h386l127 327h-386zM168 1481h437v-395h-437v395zM153 395h460l-153 -395h-460z" />
<glyph unicode="&#x3c;" horiz-adv-x="975" d="M34 529l857 -483v405l-514 290l514 290v404l-857 -478v-428zM0 977l925 516v-482l-478 -270l478 -270v-483l-925 521v468z" />
<glyph unicode="=" horiz-adv-x="959" d="M34 307h841v369h-841v-369zM34 807h841v369h-841v-369zM0 710h909v-437h-909v437zM0 1210h909v-437h-909v437z" />
<glyph unicode="&#x3e;" horiz-adv-x="975" d="M891 957l-857 478v-404l514 -290l-514 -290v-405l857 483v428zM925 509l-925 -521v483l478 270l-478 270v482l925 -516v-468z" />
<glyph unicode="?" horiz-adv-x="1090" d="M34 1449v-368h561v-1q14 0 33 -26q20 -24 20 -58q0 -28 -13 -51q-21 -34 -57 -35h-544v-437h369v98h164q110 -3 221 48q218 104 218 377q0 202 -98 320q-110 133 -326 133h-548zM34 34h369v327h-369v-327zM582 1483q232 0 352 -145q106 -128 106 -342q0 -295 -238 -407 q-117 -55 -235 -52h-130v-98h-437v505h578q16 1 27 19q9 15 9 33q0 22 -12 36q-11 14 -41 16v-1h-561v436h582zM0 395h437v-395h-437v395z" />
<glyph unicode="@" horiz-adv-x="1618" d="M1105 437q25 0 33 23q5 13 4 28v49h-226q-10 -3 -18 -17q-9 -14 -9 -32q0 -22 12 -38q11 -13 24 -13h180zM458 1449q-216 0 -326 -133q-98 -118 -98 -320v-961h358v961q-1 19 6 40q8 18 21 30q18 15 44 15h642q26 0 44 -15q13 -12 21 -30q7 -21 6 -40v-83h-247 q-6 0 -13 -1q-15 -1 -31 -2q-18 -2 -38 -6q-50 -8 -96 -26q-125 -46 -190 -145q-64 -99 -64 -245q0 -203 98 -321q110 -133 326 -133h189q216 0 326 133q98 118 98 321v508q0 202 -98 320q-110 133 -326 133h-652zM925 403q-30 0 -50 27q-20 24 -20 58q0 28 13 50 q16 26 44 33h264v-83q1 -19 -6 -40q-16 -45 -65 -45h-180zM1110 1483q232 0 352 -145q106 -128 106 -342v-508q0 -215 -106 -343q-120 -145 -352 -145h-189q-232 0 -352 145q-106 128 -106 343q0 156 70 263q71 109 206 159q48 18 102 28q20 4 42 6q16 1 29 2q9 1 17 1h213 v49q1 15 -4 28q-4 10 -11 16q-8 7 -22 7h-642q-14 0 -22 -7q-7 -6 -11 -16q-5 -13 -4 -28v-995h-426v995q0 214 106 342q120 145 352 145h652z" />
<glyph unicode="A" horiz-adv-x="1714" d="M954 555l-112 297l-112 -297h224zM611 1449l-561 -1415h446l54 143h583l55 -143h426l-541 1415h-462zM680 521l162 427l162 -427h-324zM1097 1483l567 -1483h-500l-55 143h-535l-54 -143h-520l587 1483h510z" />
<glyph unicode="B" horiz-adv-x="1384" d="M844 964q11 14 11 34q0 21 -14 37q-12 14 -29 14h-374v-102h391v0q2 0 15 17zM812 437q17 0 29 14q14 16 14 37q0 18 -10 31q-13 20 -16 20v0h-391v-102h374zM34 1449v-1415h867q165 2 281 134q118 133 118 320q0 156 -65 264q65 117 65 246q0 266 -179 371 q-136 80 -420 80h-667zM795 913v0h-391v170h408q33 0 55 -26q22 -24 22 -59q0 -32 -19 -56q-23 -29 -75 -29zM404 403v170h391v0q55 0 78 -34q16 -23 16 -51q0 -35 -22 -59q-22 -26 -55 -26h-408zM701 1483q294 0 438 -84q195 -115 195 -401q0 -137 -59 -246q59 -98 59 -264 q0 -199 -126 -342q-126 -144 -307 -146h-901v1483h701z" />
<glyph unicode="C" horiz-adv-x="1355" d="M1271 1450h-546q-294 0 -501 -207t-207 -500q0 -294 207 -501t501 -207h546v369h-546q-141 0 -240 99q-100 98 -100 240q0 141 98 240q99 99 242 99h546v368zM1305 1048h-580q-129 0 -218 -89q-88 -89 -88 -216t90 -216q89 -89 216 -89h580v-437h-580q-308 0 -525 217 t-217 525q0 307 217 524t525 217h580v-436z" />
<glyph unicode="D" horiz-adv-x="1443" d="M651 437q127 0 216 89q90 89 90 216t-88 216q-89 89 -201 89v0h-231v-610h214zM34 1449v-1415h617q293 0 500 207q208 207 208 501q0 293 -208 500q-207 207 -500 207h-617zM403 403v678h231v0q160 0 259 -99q98 -99 98 -240t-100 -240q-99 -99 -240 -99h-248zM651 1483 q307 0 524 -217q218 -217 218 -524q0 -308 -218 -525q-217 -217 -524 -217h-651v1483h651z" />
<glyph unicode="E" horiz-adv-x="1134" d="M34 1449v-1415h1016v369h-647v154h647v369h-647v155h647v368h-1016zM1084 1483v-436h-647v-87h647v-437h-647v-86h647v-437h-1084v1483h1084z" />
<glyph unicode="F" horiz-adv-x="1134" d="M34 1449v-1415h369v523h546v369h-546v155h647v368h-1016zM1084 1483v-436h-647v-87h546v-437h-546v-523h-437v1483h1084z" />
<glyph unicode="G" horiz-adv-x="1379" d="M926 403h-184q-141 0 -240 99q-100 99 -100 240t98 240q99 99 259 99v0h529v368h-546q-294 0 -501 -207t-207 -500q0 -294 207 -501t501 -207h553v677h-369v-308zM892 745h437v-745h-587q-308 0 -525 217t-217 525q0 307 217 524t525 217h580v-436h-597v0 q-112 0 -201 -89q-88 -89 -88 -216t90 -216q89 -89 216 -89h150v308z" />
<glyph unicode="H" horiz-adv-x="1320" d="M868 926h-465v523h-369v-1415h369v523h465v-523h368v1415h-368v-523zM834 1483h436v-1483h-436v523h-397v-523h-437v1483h437v-523h397v523z" />
<glyph unicode="I" horiz-adv-x="487" d="M34 34h369v1415h-369v-1415zM0 1483h437v-1483h-437v1483z" />
<glyph unicode="J" horiz-adv-x="1070" d="M618 762q0 -221 -176 -313q-54 -28 -119 -40q-20 -4 -40 -6h-249v-369h251q22 1 46 3q66 6 131 22q191 47 320 171q86 82 137 195q67 149 67 337v687h-368v-687zM584 1483h436v-721q0 -196 -71 -351q-53 -119 -143 -205q-135 -130 -336 -181q-67 -16 -137 -22 q-24 -2 -48 -3h-285v437h281q16 2 36 6q59 10 109 36q158 82 158 283v721z" />
<glyph unicode="K" horiz-adv-x="1442" d="M846 1449l-443 -601v601h-369v-1415h369v397l347 -397h576v369h-397l-210 243l605 803h-478zM1392 1483l-629 -835l182 -211h415v-437h-626l-297 341v-341h-437v1483h437v-531l391 531h564z" />
<glyph unicode="L" horiz-adv-x="1184" d="M403 1449h-369v-1415h1066v369h-697v1046zM437 437h697v-437h-1134v1483h437v-1046z" />
<glyph unicode="M" horiz-adv-x="1669" d="M810 772l-350 677h-426v-1415h369v679l406 -658l407 658v-679h369v1415h-475zM1088 1483h531v-1483h-437v593l-373 -602l-372 602v-593h-437v1483h480l328 -633z" />
<glyph unicode="N" horiz-adv-x="1425" d="M972 660l-563 789h-375v-1415h369v790l561 -790h377v1415h-369v-789zM938 1483h437v-1483h-429l-509 718v-718h-437v1483h427l511 -717v717z" />
<glyph unicode="O" horiz-adv-x="1644" d="M852 437q127 0 216 89q90 89 90 216t-88 216q-89 89 -218 89h-110q-129 0 -218 -89q-88 -89 -88 -216t90 -216q89 -89 216 -89h110zM742 1449q-294 0 -501 -207t-207 -500q0 -294 207 -501t501 -207h110q294 0 501 207t207 501q0 293 -207 500t-501 207h-110zM742 403 q-141 0 -240 99q-100 99 -100 240t98 240q99 99 242 99h110q143 0 242 -99q98 -99 98 -240t-100 -240q-99 -99 -240 -99h-110zM852 1483q308 0 525 -217t217 -524q0 -308 -217 -525t-525 -217h-110q-308 0 -525 217t-217 525q0 307 217 524t525 217h110z" />
<glyph unicode="P" horiz-adv-x="1302" d="M665 824q34 0 58 24t24 58t-24 58t-58 24h-228v-164h228zM403 790v232h262q48 0 82 -34t34 -82t-34 -82t-82 -34h-262zM34 1449v-1415h369v371h315q198 2 349 154q151 153 151 368t-151 367q-151 153 -366 155h-667zM701 1483q229 -2 390 -165q161 -162 161 -391 t-161 -392q-161 -162 -407 -164h-247v-371h-437v1483h701z" />
<glyph unicode="Q" horiz-adv-x="1644" d="M712 438l-67 78l329 287l160 -185q24 43 24 124q0 127 -88 216q-89 89 -218 89h-110q-129 0 -218 -89q-88 -89 -88 -216t90 -216q78 -78 186 -88zM787 403h-45q-141 0 -240 99q-100 99 -100 240t98 240q99 99 242 99h110q143 0 242 -99q98 -99 98 -240q0 -89 -52 -184 l-170 197l-277 -243zM1170 -42l277 243l-62 73q175 204 175 468q0 293 -207 500t-501 207h-110q-294 0 -501 -207t-207 -500q0 -294 207 -501t501 -207h110q112 0 224 33zM1064 29q-94 -29 -212 -29h-110q-308 0 -525 217t-217 525q0 307 217 524t525 217h110 q308 0 525 -217t217 -524q0 -276 -165 -468l66 -77l-329 -287z" />
<glyph unicode="R" horiz-adv-x="1303" d="M1067 1294q-151 153 -366 155h-667v-1415h369v285l263 -285h553v369h-369q197 109 282 236q86 131 86 288q0 215 -151 367zM665 824q34 0 58 24t24 58t-24 58t-58 24h-228v-164h228zM1252 927q0 -167 -92 -306q-89 -135 -178 -184h271v-437h-601l-215 233v-233h-437v1483 h701q229 -2 390 -165q161 -162 161 -391zM403 790v232h262q48 0 82 -34t34 -82t-34 -82t-82 -34h-262z" />
<glyph unicode="S" horiz-adv-x="1232" d="M1148 1081v368h-690q-135 0 -231 -103q-95 -102 -95 -242q0 -113 60 -186l494 -515h-652v-369h727q134 0 231 103q96 103 96 242q0 98 -59 185q-464 483 -492 517h611zM610 1047q21 -20 445 -461q67 -99 67 -207q0 -153 -106 -266q-107 -113 -255 -113h-761v437h606 l-440 459q-68 83 -68 208q0 154 105 266q106 113 255 113h724v-436h-572z" />
<glyph unicode="T" horiz-adv-x="1231" d="M34 1449v-368h372v-1047h369v1047h372v368h-1113zM1181 1483v-436h-372v-1047h-437v1047h-372v436h1181z" />
<glyph unicode="U" horiz-adv-x="1317" d="M864 633q0 -95 -67 -163q-68 -67 -164 -67q-95 0 -163 67q-67 68 -67 163v822h-369v-822q0 -248 176 -423q175 -176 423 -176t424 176q176 175 176 423v822h-369v-822zM830 1489h437v-856q0 -262 -186 -447q-186 -186 -448 -186t-447 186q-186 185 -186 447v856h437v-856 q0 -81 57 -139q58 -57 139 -57q82 0 140 57q57 58 57 139v856z" />
<glyph unicode="V" horiz-adv-x="1714" d="M822 536l-346 913h-426l541 -1415h462l561 1415h-446zM1144 1483h520l-587 -1483h-510l-567 1483h500l322 -851z" />
<glyph unicode="W" horiz-adv-x="1825" d="M1177 856l-136 593h-328l-137 -593l-136 593h-398l325 -1415h369l150 614l83 -614h418l344 1415h-417zM1286 1483h489l-362 -1483h-474l-63 466l-114 -466h-423l-339 1483h468l108 -475l109 475h384l108 -475z" />
<glyph unicode="X" horiz-adv-x="1523" d="M1411 1449h-470l-204 -330l-205 330h-470l-12 18l452 -725l-452 -726l12 18h470l205 330l204 -330h470l12 -18l-452 726l452 725zM1451 1449l-440 -707l440 -708l22 -34h-550l-186 300l-187 -300h-550l22 34l440 708l-440 707l-22 34h550l187 -300l186 300h550z" />
<glyph unicode="Y" horiz-adv-x="1643" d="M796 937l-307 512h-429l517 -861l35 -60v-494h369v494l35 60l517 861h-429zM1084 1483h509l-547 -913l-31 -52v-518h-437v518l-31 52l-547 913h509l287 -480z" />
<glyph unicode="Z" horiz-adv-x="1235" d="M34 1081h645l-645 -678v-369h1117v369h-646l646 677v369h-1117v-368zM0 1483h1185v-417l-600 -629h600v-437h-1185v417l599 630h-599v436z" />
<glyph unicode="[" horiz-adv-x="607" d="M523 403h-120v678h120v368h-489v-1415h489v369zM557 0h-557v1483h557v-436h-120v-610h120v-437z" />
<glyph unicode="\" horiz-adv-x="813" d="M469 1449h-429l254 -1415h429zM763 0h-497l-266 1483h497z" />
<glyph unicode="]" horiz-adv-x="607" d="M34 34h489v1415h-489v-368h120v-678h-120v-369zM0 437h120v610h-120v436h557v-1483h-557v437z" />
<glyph unicode="^" horiz-adv-x="1266" d="M485 609l129 339l129 -339h423l-321 840h-462l-333 -840h435zM0 575l359 908h510l347 -908h-497l-105 277l-105 -277h-509z" />
<glyph unicode="_" horiz-adv-x="930" d="M34 34h812v369h-812v-369zM0 437h880v-437h-880v437z" />
<glyph unicode="`" />
<glyph unicode="a" horiz-adv-x="1714" d="M954 555l-112 297l-112 -297h224zM611 1449l-561 -1415h446l54 143h583l55 -143h426l-541 1415h-462zM680 521l162 427l162 -427h-324zM1097 1483l567 -1483h-500l-55 143h-535l-54 -143h-520l587 1483h510z" />
<glyph unicode="b" horiz-adv-x="1384" d="M844 964q11 14 11 34q0 21 -14 37q-12 14 -29 14h-374v-102h391v0q2 0 15 17zM812 437q17 0 29 14q14 16 14 37q0 18 -10 31q-13 20 -16 20v0h-391v-102h374zM34 1449v-1415h867q165 2 281 134q118 133 118 320q0 156 -65 264q65 117 65 246q0 266 -179 371 q-136 80 -420 80h-667zM795 913v0h-391v170h408q33 0 55 -26q22 -24 22 -59q0 -32 -19 -56q-23 -29 -75 -29zM404 403v170h391v0q55 0 78 -34q16 -23 16 -51q0 -35 -22 -59q-22 -26 -55 -26h-408zM701 1483q294 0 438 -84q195 -115 195 -401q0 -137 -59 -246q59 -98 59 -264 q0 -199 -126 -342q-126 -144 -307 -146h-901v1483h701z" />
<glyph unicode="c" horiz-adv-x="1355" d="M1271 1450h-546q-294 0 -501 -207t-207 -500q0 -294 207 -501t501 -207h546v369h-546q-141 0 -240 99q-100 98 -100 240q0 141 98 240q99 99 242 99h546v368zM1305 1048h-580q-129 0 -218 -89q-88 -89 -88 -216t90 -216q89 -89 216 -89h580v-437h-580q-308 0 -525 217 t-217 525q0 307 217 524t525 217h580v-436z" />
<glyph unicode="d" horiz-adv-x="1443" d="M651 437q127 0 216 89q90 89 90 216t-88 216q-89 89 -201 89v0h-231v-610h214zM34 1449v-1415h617q293 0 500 207q208 207 208 501q0 293 -208 500q-207 207 -500 207h-617zM403 403v678h231v0q160 0 259 -99q98 -99 98 -240t-100 -240q-99 -99 -240 -99h-248zM651 1483 q307 0 524 -217q218 -217 218 -524q0 -308 -218 -525q-217 -217 -524 -217h-651v1483h651z" />
<glyph unicode="e" horiz-adv-x="1134" d="M34 1449v-1415h1016v369h-647v154h647v369h-647v155h647v368h-1016zM1084 1483v-436h-647v-87h647v-437h-647v-86h647v-437h-1084v1483h1084z" />
<glyph unicode="f" horiz-adv-x="1134" d="M34 1449v-1415h369v523h546v369h-546v155h647v368h-1016zM1084 1483v-436h-647v-87h546v-437h-546v-523h-437v1483h1084z" />
<glyph unicode="g" horiz-adv-x="1379" d="M926 403h-184q-141 0 -240 99q-100 99 -100 240t98 240q99 99 259 99v0h529v368h-546q-294 0 -501 -207t-207 -500q0 -294 207 -501t501 -207h553v677h-369v-308zM892 745h437v-745h-587q-308 0 -525 217t-217 525q0 307 217 524t525 217h580v-436h-597v0 q-112 0 -201 -89q-88 -89 -88 -216t90 -216q89 -89 216 -89h150v308z" />
<glyph unicode="h" horiz-adv-x="1320" d="M868 926h-465v523h-369v-1415h369v523h465v-523h368v1415h-368v-523zM834 1483h436v-1483h-436v523h-397v-523h-437v1483h437v-523h397v523z" />
<glyph unicode="i" horiz-adv-x="487" d="M34 34h369v1415h-369v-1415zM0 1483h437v-1483h-437v1483z" />
<glyph unicode="j" horiz-adv-x="1070" d="M618 762q0 -221 -176 -313q-54 -28 -119 -40q-20 -4 -40 -6h-12h-3h-1h-233v-369h222h12h17q22 1 46 3q66 6 131 22q191 47 320 171q86 82 137 195q67 149 67 337v687h-368v-687zM584 1483h436v-721q0 -196 -71 -351q-53 -119 -143 -205q-135 -130 -336 -181 q-67 -16 -137 -22q-24 -2 -48 -3h-17h-12h-256v437h267h1h3h10q16 2 36 6q59 10 109 36q158 82 158 283v721z" />
<glyph unicode="k" horiz-adv-x="1442" d="M846 1449l-443 -601v601h-369v-1415h369v417q57 -101 89 -141q20 -26 41 -49q216 -227 596 -227h212v369h-212q-219 0 -326 110q-50 52 -81 137l602 799h-478zM1392 1483l-632 -839q23 -61 67 -107q97 -100 302 -100h246v-437h-246q-394 0 -620 237q-23 25 -43 51 q-34 42 -29 33v-321h-437v1483h437v-531l391 531h564z" />
<glyph unicode="l" horiz-adv-x="1184" d="M403 1449h-369v-1415h1066v369h-697v1046zM437 437h697v-437h-1134v1483h437v-1046z" />
<glyph unicode="m" horiz-adv-x="1669" d="M810 772l-350 677h-426v-1415h369v679l406 -658l407 658v-679h369v1415h-475zM1088 1483h531v-1483h-437v593l-373 -602l-372 602v-593h-437v1483h480l328 -633z" />
<glyph unicode="n" horiz-adv-x="1425" d="M972 660l-563 789h-375v-1415h369v790l561 -790h377v1415h-369v-789zM938 1483h437v-1483h-429l-509 718v-718h-437v1483h427l511 -717v717z" />
<glyph unicode="o" horiz-adv-x="1644" d="M852 437q127 0 216 89q90 89 90 216t-88 216q-89 89 -218 89h-110q-129 0 -218 -89q-88 -89 -88 -216t90 -216q89 -89 216 -89h110zM742 1449q-294 0 -501 -207t-207 -500q0 -294 207 -501t501 -207h110q294 0 501 207t207 501q0 293 -207 500t-501 207h-110zM742 403 q-141 0 -240 99q-100 99 -100 240t98 240q99 99 242 99h110q143 0 242 -99q98 -99 98 -240t-100 -240q-99 -99 -240 -99h-110zM852 1483q308 0 525 -217t217 -524q0 -308 -217 -525t-525 -217h-110q-308 0 -525 217t-217 525q0 307 217 524t525 217h110z" />
<glyph unicode="p" horiz-adv-x="1302" d="M34 1449v-1415h369v371h315v0q198 2 349 154q151 153 151 368t-151 367q-151 153 -366 155h-667zM665 824q34 0 58 24t24 58t-24 58t-58 24h-228v-164h228zM701 1483q229 -2 390 -165q161 -162 161 -391t-161 -392q-161 -162 -407 -164v0h-247v-371h-437v1483h701z M403 790v232h262q48 0 82 -34t34 -82t-34 -82t-82 -34h-262z" />
<glyph unicode="q" horiz-adv-x="1644" d="M645 516l329 287l160 -185q24 43 24 124q0 127 -88 216q-89 89 -218 89h-110q-129 0 -218 -89q-88 -89 -88 -216t90 -216q89 -89 216 -89h-29zM1170 -42l277 243l-62 73q175 204 175 468q0 293 -207 500t-501 207h-110q-294 0 -501 -207t-207 -500q0 -294 207 -501 t501 -207h110q112 0 224 33zM787 403h-45q-141 0 -240 99q-100 99 -100 240t98 240q99 99 242 99h110q143 0 242 -99q98 -99 98 -240q0 -89 -52 -184l-170 197l-277 -243zM1064 29q-94 -29 -212 -29h-110q-308 0 -525 217t-217 525q0 307 217 524t525 217h110 q308 0 525 -217t217 -524q0 -276 -165 -468l66 -77l-329 -287z" />
<glyph unicode="r" horiz-adv-x="1302" d="M1067 1294q-151 153 -366 155h-667v-1415h369v290q43 -53 56 -67q207 -223 625 -223h104v369h-104q-96 0 -223 26q187 84 271 210q86 131 86 288q0 215 -151 367zM665 824q34 0 58 24t24 58t-24 58t-58 24h-228v-164h228zM1252 927q0 -167 -92 -306q-90 -136 -189 -180 q21 -4 113 -4h138v-437h-138q-432 0 -649 233l2 -5v-228h-437v1483h701q229 -2 390 -165q161 -162 161 -391zM403 790v232h262q48 0 82 -34t34 -82t-34 -82t-82 -34h-262z" />
<glyph unicode="s" horiz-adv-x="1082" d="M978 1081v368h-610q-135 0 -231 -103q-95 -102 -95 -242q0 -113 60 -186l494 -515h-562v-369h637q134 0 231 103q96 103 96 242q0 98 -59 185q-464 483 -492 517h531zM519 1047q-18 22 446 -461q67 -99 67 -207q0 -153 -106 -266q-107 -113 -255 -113h-671v437h516 l-440 459q-68 83 -68 208q0 154 105 266q106 113 255 113h644v-436h-493z" />
<glyph unicode="t" horiz-adv-x="1231" d="M34 1449v-368h372v-1047h369v1047h372v368h-1113zM1181 1483v-436h-372v-1047h-437v1047h-372v436h1181z" />
<glyph unicode="u" horiz-adv-x="1317" d="M864 633q0 -95 -67 -163q-68 -67 -164 -67q-95 0 -163 67q-67 68 -67 163v822h-369v-822q0 -248 176 -423q175 -176 423 -176t424 176q176 175 176 423v822h-369v-822zM830 1489h437v-856q0 -262 -186 -447q-186 -186 -448 -186t-447 186q-186 185 -186 447v856h437v-856 q0 -81 57 -139q58 -57 139 -57q82 0 140 57q57 58 57 139v856z" />
<glyph unicode="v" horiz-adv-x="1714" d="M822 536l-346 913h-426l541 -1415h462l561 1415h-446zM1144 1483h520l-587 -1483h-510l-567 1483h500l322 -851z" />
<glyph unicode="w" horiz-adv-x="1825" d="M1177 856l-136 593h-328l-137 -593l-136 593h-398l325 -1415h369l150 614l83 -614h418l344 1415h-417zM1286 1483h489l-362 -1483h-474l-63 466l-114 -466h-423l-339 1483h468l108 -475l109 475h384l108 -475z" />
<glyph unicode="x" horiz-adv-x="1523" d="M1411 1449h-470l-204 -330l-205 330h-470l-12 18l452 -725l-452 -726l12 18h470l205 330l204 -330h470l12 -18l-452 726l452 725zM1451 1449l-440 -707l440 -708l22 -34h-550l-186 300l-187 -300h-550l22 34l440 708l-440 707l-22 34h550l187 -300l186 300h550z" />
<glyph unicode="y" horiz-adv-x="1643" d="M796 937l-307 512h-429l517 -861l35 -60v-494h369v494l35 60l517 861h-429zM1084 1483h509l-547 -913l-31 -52v-518h-437v518l-31 52l-547 913h509l287 -480z" />
<glyph unicode="z" horiz-adv-x="1235" d="M34 1081h645l-645 -678v-369h1117v369h-646l646 677v369h-1117v-368zM0 1483h1185v-417l-600 -629h600v-437h-1185v417l599 630h-599v436z" />
<glyph unicode="{" />
<glyph unicode="|" horiz-adv-x="487" d="M34 34h369v1415h-369v-1415zM0 1483h437v-1483h-437v1483z" />
<glyph unicode="}" />
<glyph unicode="~" />
<glyph unicode="&#xa1;" />
<glyph unicode="&#xa2;" />
<glyph unicode="&#xa3;" horiz-adv-x="589" d="M69 759h436v168h-268v88h108v95h-108v107q0 21 15 36q14 16 36 16t36 -16q15 -15 15 -36v-17h166v34q0 90 -63 153q-64 63 -154 63t-154 -63t-65 -153v-124h-35v-95h35v-256zM35 981h-35v163h35v90q1 104 75 177t178 73t178 -73q73 -73 73 -177v-68h-234v51q0 7 -5 12 q-6 6 -12 6t-12 -6q-5 -5 -5 -12v-73h108v-163h-108v-20h268v-236h-504v256z" />
<glyph unicode="&#xa4;" />
<glyph unicode="&#xa5;" />
<glyph unicode="&#xa6;" />
<glyph unicode="&#xa7;" />
<glyph unicode="&#xa8;" />
<glyph unicode="&#xa9;" />
<glyph unicode="&#xaa;" />
<glyph unicode="&#xab;" />
<glyph unicode="&#xac;" />
<glyph unicode="&#xad;" horiz-adv-x="645" d="M34 557h527v369h-527v-369zM0 960h595v-437h-595v437z" />
<glyph unicode="&#xae;" />
<glyph unicode="&#xaf;" />
<glyph unicode="&#xb0;" />
<glyph unicode="&#xb1;" />
<glyph unicode="&#xb2;" />
<glyph unicode="&#xb3;" />
<glyph unicode="&#xb4;" />
<glyph unicode="&#xb5;" />
<glyph unicode="&#xb6;" />
<glyph unicode="&#xb7;" />
<glyph unicode="&#xb8;" />
<glyph unicode="&#xb9;" />
<glyph unicode="&#xba;" />
<glyph unicode="&#xbb;" />
<glyph unicode="&#xbc;" />
<glyph unicode="&#xbd;" />
<glyph unicode="&#xbe;" />
<glyph unicode="&#xbf;" />
<glyph unicode="&#xc0;" />
<glyph unicode="&#xc1;" />
<glyph unicode="&#xc2;" />
<glyph unicode="&#xc3;" />
<glyph unicode="&#xc4;" />
<glyph unicode="&#xc5;" />
<glyph unicode="&#xc6;" />
<glyph unicode="&#xc7;" />
<glyph unicode="&#xc8;" />
<glyph unicode="&#xc9;" />
<glyph unicode="&#xca;" />
<glyph unicode="&#xcb;" />
<glyph unicode="&#xcc;" />
<glyph unicode="&#xcd;" />
<glyph unicode="&#xce;" />
<glyph unicode="&#xcf;" />
<glyph unicode="&#xd0;" />
<glyph unicode="&#xd1;" />
<glyph unicode="&#xd2;" />
<glyph unicode="&#xd3;" />
<glyph unicode="&#xd4;" />
<glyph unicode="&#xd5;" />
<glyph unicode="&#xd6;" />
<glyph unicode="&#xd7;" />
<glyph unicode="&#xd8;" />
<glyph unicode="&#xd9;" />
<glyph unicode="&#xda;" />
<glyph unicode="&#xdb;" />
<glyph unicode="&#xdc;" />
<glyph unicode="&#xdd;" />
<glyph unicode="&#xde;" />
<glyph unicode="&#xdf;" horiz-adv-x="1359" d="M1118 1370q-120 79 -369 79h-291q-216 0 -326 -133q-98 -118 -98 -320v-962h358v962q0 22 15 43q12 20 34 30q25 13 62 13h343q30 0 51 -26q20 -24 20 -58q0 -32 -17 -55q-21 -30 -37 -30h-281v-340h281q19 0 39 -35q15 -22 15 -50q0 -34 -20 -59q-21 -26 -51 -26h-264 v-369h344q142 0 245 132q104 135 104 322q0 157 -57 264q57 117 57 246q0 267 -157 372zM1309 998q0 -137 -53 -246q53 -99 53 -264q0 -199 -112 -342q-113 -146 -271 -146h-378v437h298q14 0 25 14q12 15 12 37q0 18 -9 32q-12 19 -45 19h-281v408h281q32 0 43 16 q11 15 11 35q0 22 -12 36q-11 14 -25 14h-343q-29 0 -48 -9q-12 -6 -20 -18q-9 -13 -9 -25v-996h-426v996q0 214 106 342q120 145 352 145h291q259 0 387 -85q173 -115 173 -400z" />
<glyph unicode="&#xe0;" />
<glyph unicode="&#xe1;" />
<glyph unicode="&#xe2;" />
<glyph unicode="&#xe3;" />
<glyph unicode="&#xe4;" />
<glyph unicode="&#xe5;" />
<glyph unicode="&#xe6;" />
<glyph unicode="&#xe7;" />
<glyph unicode="&#xe8;" />
<glyph unicode="&#xe9;" />
<glyph unicode="&#xea;" />
<glyph unicode="&#xeb;" />
<glyph unicode="&#xec;" />
<glyph unicode="&#xed;" />
<glyph unicode="&#xee;" />
<glyph unicode="&#xef;" />
<glyph unicode="&#xf0;" />
<glyph unicode="&#xf1;" />
<glyph unicode="&#xf2;" />
<glyph unicode="&#xf3;" />
<glyph unicode="&#xf4;" />
<glyph unicode="&#xf5;" />
<glyph unicode="&#xf6;" />
<glyph unicode="&#xf7;" />
<glyph unicode="&#xf8;" />
<glyph unicode="&#xf9;" />
<glyph unicode="&#xfa;" />
<glyph unicode="&#xfb;" />
<glyph unicode="&#xfc;" />
<glyph unicode="&#xfd;" />
<glyph unicode="&#xfe;" />
<glyph unicode="&#xff;" />
<glyph unicode="&#x131;" />
<glyph unicode="&#x2c6;" />
<glyph unicode="&#x2c7;" />
<glyph unicode="&#x2d8;" />
<glyph unicode="&#x2d9;" />
<glyph unicode="&#x2da;" />
<glyph unicode="&#x2db;" />
<glyph unicode="&#x2dc;" />
<glyph unicode="&#x2dd;" />
<glyph unicode="&#x2000;" horiz-adv-x="746" />
<glyph unicode="&#x2001;" horiz-adv-x="1493" />
<glyph unicode="&#x2002;" horiz-adv-x="746" />
<glyph unicode="&#x2003;" horiz-adv-x="1493" />
<glyph unicode="&#x2004;" horiz-adv-x="497" />
<glyph unicode="&#x2005;" horiz-adv-x="373" />
<glyph unicode="&#x2006;" horiz-adv-x="248" />
<glyph unicode="&#x2007;" horiz-adv-x="248" />
<glyph unicode="&#x2008;" horiz-adv-x="186" />
<glyph unicode="&#x2009;" horiz-adv-x="298" />
<glyph unicode="&#x200a;" horiz-adv-x="82" />
<glyph unicode="&#x2010;" horiz-adv-x="645" d="M34 557h527v369h-527v-369zM0 960h595v-437h-595v437z" />
<glyph unicode="&#x2011;" horiz-adv-x="645" d="M34 557h527v369h-527v-369zM0 960h595v-437h-595v437z" />
<glyph unicode="&#x2012;" horiz-adv-x="645" d="M34 557h527v369h-527v-369zM0 960h595v-437h-595v437z" />
<glyph unicode="&#x2013;" />
<glyph unicode="&#x2014;" />
<glyph unicode="&#x2018;" />
<glyph unicode="&#x2019;" />
<glyph unicode="&#x201a;" />
<glyph unicode="&#x201c;" />
<glyph unicode="&#x201d;" />
<glyph unicode="&#x201e;" />
<glyph unicode="&#x2020;" />
<glyph unicode="&#x2021;" />
<glyph unicode="&#x2022;" />
<glyph unicode="&#x2026;" />
<glyph unicode="&#x202f;" horiz-adv-x="298" />
<glyph unicode="&#x2039;" />
<glyph unicode="&#x203a;" />
<glyph unicode="&#x2044;" />
<glyph unicode="&#x205f;" horiz-adv-x="373" />
<glyph unicode="&#x20a3;" />
<glyph unicode="&#x20a4;" />
<glyph unicode="&#x20a7;" />
<glyph unicode="&#x20ac;" />
<glyph unicode="&#x2122;" />
<glyph unicode="&#x2202;" />
<glyph unicode="&#x2206;" />
<glyph unicode="&#x220f;" />
<glyph unicode="&#x2211;" />
<glyph unicode="&#x221a;" />
<glyph unicode="&#x221e;" />
<glyph unicode="&#x222b;" />
<glyph unicode="&#x2248;" />
<glyph unicode="&#x2264;" />
<glyph unicode="&#x2265;" />
<glyph unicode="&#x25fc;" horiz-adv-x="1485" d="M0 1485h1485v-1485h-1485v1485z" />
</font>
</defs>
</svg>
