<?xml version="1.0" encoding="utf-8"?>
<!-- Generator: Adobe Illustrator 27.3.1, SVG Export Plug-In . SVG Version: 6.00 Build 0)  -->
<svg version="1.1" xmlns="http://www.w3.org/2000/svg" xmlns:xlink="http://www.w3.org/1999/xlink" x="0px" y="0px"
	 viewBox="0 0 5000 5000" style="enable-background:new 0 0 5000 5000;" xml:space="preserve">
<style type="text/css">
	.st0{display:none;}
	.st1{display:inline;}
	.st2{fill:#F2F2F2;}
	.st3{fill:none;stroke:#FFFFFF;stroke-width:70;stroke-linecap:round;stroke-miterlimit:10;}
</style>
<g id="Camada_2" class="st0">
	<rect x="71" y="71" class="st1" width="4858" height="4858"/>
</g>
<g id="Camada_1">
	<g>
		<g>
			<path class="st2" d="M3024.72,2197.47c49.65-41.57,115.75-101.48,198.3-179.68c9.92-134.06,20.79-224.98,32.58-272.78
				c5.59-18.62,14.74-34.91,27.46-48.88c12.71-13.96,23.42-20.95,32.12-20.95c6.82,0,10.24,4.98,10.24,14.9
				c0,3.72-0.32,8.38-0.93,13.96c-8.07,73.87-14.59,152.38-19.55,235.54c64.54-62.68,119.94-114.19,166.18-154.54
				c46.23-40.34,76.49-64.85,90.77-73.55l20.48-13.96c30.4-14.9,58.65-22.34,84.72-22.34c18.62,0,27.93,3.11,27.93,9.31
				c0,4.35-4.82,10.24-14.43,17.69c-9.63,7.45-19.87,14.28-30.72,20.48c-10.87,6.21-22.66,12.73-35.38,19.55
				c-12.73,6.84-19.71,10.56-20.95,11.17c-97.45,57.72-194.27,132.52-290.47,224.37c-2.49,67.03-3.72,117.3-3.72,150.82
				c0,145.86,14.58,225.3,43.76,238.33c4.96,1.86,7.45,5.59,7.45,11.17c0,11.8-11.49,23.27-34.45,34.45
				c-22.97,11.17-40.35,16.76-52.13,16.76c-14.29,0-22.66-5.28-25.14-15.83c-14.28-55.23-21.41-131.27-21.41-228.09
				c0-41.57,0.93-82.86,2.79-123.82c-31.04,32.9-60.37,66.1-87.98,99.61c-27.62,33.52-47.64,58.65-60.05,75.41l-17.69,26.07
				c-91.86,121.65-147.09,182.47-165.71,182.47c-4.96,0-7.45-4.35-7.45-13.03c0-23.59,6.84-49.49,20.48-77.74
				c13.66-28.24,29.65-53.53,47.95-75.88c18.3-22.34,34.29-40.64,47.95-54.93C3011.36,2209.27,3020.37,2200.58,3024.72,2197.47z"/>
		</g>
		<g>
			<path class="st2" d="M2002.28,2223.54c13.66,14.28,29.65,32.58,47.95,54.93c18.3,22.34,34.29,47.64,47.95,75.88
				c13.64,28.25,20.48,54.14,20.48,77.74c0,8.68-2.49,13.03-7.45,13.03c-18.62,0-73.85-60.82-165.72-182.47l-17.69-26.07
				c-12.41-16.76-32.42-41.89-60.05-75.41c-27.61-33.51-56.94-66.71-87.98-99.61c1.86,40.96,2.79,82.25,2.79,123.82
				c0,96.82-7.13,172.86-21.41,228.09c-2.47,10.55-10.85,15.83-25.14,15.83c-11.78,0-29.17-5.59-52.14-16.76
				c-22.95-11.17-34.45-22.65-34.45-34.45c0-5.59,2.49-9.31,7.45-11.17c29.18-13.03,43.76-92.47,43.76-238.33
				c0-33.51-1.24-83.79-3.72-150.82c-96.2-91.85-193.02-166.65-290.47-224.37c-1.24-0.61-8.22-4.33-20.95-11.17
				c-12.71-6.82-24.51-13.34-35.38-19.55c-10.85-6.2-21.09-13.03-30.72-20.48c-9.62-7.45-14.43-13.34-14.43-17.69
				c0-6.2,9.31-9.31,27.93-9.31c26.07,0,54.32,7.45,84.72,22.34l20.48,13.96c14.28,8.7,44.54,33.21,90.77,73.55
				c46.24,40.35,101.64,91.86,166.18,154.54c-4.96-83.16-11.48-161.67-19.55-235.54c-0.61-5.59-0.93-10.24-0.93-13.96
				c0-9.92,3.42-14.9,10.24-14.9c8.7,0,19.41,6.98,32.12,20.95c12.73,13.96,21.88,30.26,27.46,48.88
				c11.8,47.8,22.66,138.72,32.58,272.78c82.55,78.2,148.65,138.11,198.3,179.68C1979.63,2200.58,1988.64,2209.27,2002.28,2223.54z"
				/>
		</g>
		<path class="st3" d="M1435.84,3324.81c0,0,1005.68-917.3,2202.22,0"/>
	</g>
</g>
</svg>
